<?xml version="1.0" encoding="UTF-8" standalone="no"?>
<!--

    Lick Audio.
    Copyright (c) 2020-2022 held jointly by the individual authors.

    This file is part of Lick Audio.

    Lick Audio is free software: you can redistribute it and/or modify
    it under the terms of the GNU General Public License as published by
    the Free Software Foundation, either version 3 of the License, or
    (at your option) any later version.

    Lick Audio is distributed in the hope that it will be useful,
    but WITHOUT ANY WARRANTY; without even the implied warranty of
    MERCHANTABILITY or FITNESS FOR A PARTICULAR PURPOSE.  See the
    GNU General Public License for more details.

    You should have received a copy of the GNU General Public License
    along with Lick Audio.  If not, see <http://www.gnu.org/licenses/>.

-->
<svg
   xmlns:dc="http://purl.org/dc/elements/1.1/"
   xmlns:cc="http://creativecommons.org/ns#"
   xmlns:rdf="http://www.w3.org/1999/02/22-rdf-syntax-ns#"
   xmlns:svg="http://www.w3.org/2000/svg"
   xmlns="http://www.w3.org/2000/svg"
   xmlns:sodipodi="http://sodipodi.sourceforge.net/DTD/sodipodi-0.dtd"
   xmlns:inkscape="http://www.inkscape.org/namespaces/inkscape"
   width="15.052mm"
   height="128.5mm"
   viewBox="0 0 15.052 128.5"
   id="svg5363"
   version="1.1"
   inkscape:version="1.0.1 (2a5465c, 2020-09-20)"
   sodipodi:docname="3hp.svg">
  <defs
     id="defs5365" />
  <sodipodi:namedview
     id="base"
     pagecolor="#ffffff"
     bordercolor="#666666"
     borderopacity="1.0"
     inkscape:pageopacity="0.0"
     inkscape:pageshadow="2"
     inkscape:zoom="0.68574913"
     inkscape:cx="55.873728"
     inkscape:cy="282.64786"
     inkscape:document-units="mm"
     inkscape:current-layer="layer1"
     showgrid="false"
     inkscape:window-width="960"
     inkscape:window-height="600"
     inkscape:window-x="318"
     inkscape:window-y="57"
     inkscape:window-maximized="0"
     inkscape:document-rotation="0" />
  <metadata
     id="metadata5368">
    <rdf:RDF>
      <cc:Work
         rdf:about="">
        <dc:format>image/svg+xml</dc:format>
        <dc:type
           rdf:resource="http://purl.org/dc/dcmitype/StillImage" />
        <dc:title />
      </cc:Work>
    </rdf:RDF>
  </metadata>
  <g
     inkscape:label="Layer 1"
     inkscape:groupmode="layer"
     id="layer1"
     transform="translate(0,-168.5)">
    <rect
       style="fill:#eeeeec;fill-opacity:1;stroke:#ff0000;stroke-width:0.01;stroke-miterlimit:4;stroke-dasharray:none;stroke-opacity:1"
       id="rect5914"
       width="15.042"
       height="128.48999"
       x="0.0049999999"
       y="168.50499" />
    <path
       inkscape:connector-curvature="0"
       style="fill:#d3d7cf;fill-opacity:1;fill-rule:nonzero;stroke:none;stroke-width:0.35277778"
       d="m 12.46164,273.41832 c 0,-0.54984 0.07987,-1.05034 -0.469952,-1.04731 l -8.7435858,0.0482 c -0.5498416,0.003 -0.4685421,0.44924 -0.4685421,0.99908 l 0,11.67336 c 0,0.54984 -0.033079,1.00046 0.5167709,1.00046 l 8.647128,0 c 0.54983,0 0.518181,-0.45062 0.518181,-1.00046 z"
       id="path38477"
       sodipodi:nodetypes="sssssssss" />
    <g
       id="g966"
       transform="translate(2.4459999,171.595)">
      <path
         inkscape:connector-curvature="0"
         d="m 2.4259609,4.728 0.273,0 0,-0.3465 0.28,-0.0805 0,0.427 0.476,0 0,0.245 -0.476,0 0,0.9695 q 0,0.182 0.0455,0.259 0.0455,0.0735 0.154,0.0735 0.091,0 0.154,-0.0175 0.063,-0.021 0.14,-0.0525 l 0.063,0.2135 q -0.0945,0.0455 -0.2065,0.0735 -0.112,0.028 -0.2415,0.028 -0.2135,0 -0.301,-0.119 -0.0875,-0.1225 -0.0875,-0.406 l 0,-1.022 -0.273,0 z"
         style="font-style:normal;font-variant:normal;font-weight:normal;font-stretch:normal;font-size:3.5px;line-height:1.25;font-family:'PT Sans';-inkscape-font-specification:'PT Sans';fill:#a40000;fill-opacity:1;stroke:none;stroke-width:0.26458299"
         id="path20" />
      <path
         inkscape:connector-curvature="0"
         d="m 3.9059141,4.728 0.28,0 0,1.75 -0.28,0 z m -0.0595,-0.532 q 0,-0.0805 0.0525,-0.1365 0.056,-0.0595 0.14,-0.0595 0.084,0 0.1435,0.0595 0.0595,0.056 0.0595,0.1365 0,0.0805 -0.0595,0.133 -0.0595,0.0525 -0.1435,0.0525 -0.084,0 -0.14,-0.0525 -0.0525,-0.0525 -0.0525,-0.133 z"
         style="font-style:normal;font-variant:normal;font-weight:normal;font-stretch:normal;font-size:3.5px;line-height:1.25;font-family:'PT Sans';-inkscape-font-specification:'PT Sans';fill:#a40000;fill-opacity:1;stroke:none;stroke-width:0.26458299"
         id="path22" />
      <path
         inkscape:connector-curvature="0"
         d="m 5.9764375,6.3625 q -0.105,0.077 -0.2485,0.1155 -0.1435,0.042 -0.301,0.042 -0.203,0 -0.343,-0.063 -0.14,-0.0665 -0.231,-0.1855 -0.0875,-0.1225 -0.1295,-0.2905 -0.0385,-0.1715 -0.0385,-0.378 0,-0.4445 0.196,-0.679 0.196,-0.238 0.5635,-0.238 0.168,0 0.2835,0.028 0.119,0.0245 0.2135,0.0735 l -0.0805,0.2415 q -0.0805,-0.0455 -0.1785,-0.07 -0.098,-0.028 -0.21,-0.028 -0.497,0 -0.497,0.672 0,0.133 0.0245,0.2555 0.028,0.119 0.0875,0.2135 0.063,0.091 0.161,0.147 0.1015,0.056 0.2485,0.056 0.126,0 0.224,-0.0385 0.1015,-0.0385 0.1645,-0.0875 z"
         style="font-style:normal;font-variant:normal;font-weight:normal;font-stretch:normal;font-size:3.5px;line-height:1.25;font-family:'PT Sans';-inkscape-font-specification:'PT Sans';fill:#a40000;fill-opacity:1;stroke:none;stroke-width:0.26458299"
         id="path24" />
      <path
         inkscape:connector-curvature="0"
         d="m 6.8030391,5.6905 -0.161,0 0,0.7875 -0.28,0 0,-2.45 0.28,0 0,1.491 0.1435,-0.049 0.5425,-0.742 0.3255,0 -0.5355,0.7035 -0.1435,0.1155 0.175,0.14 0.5845,0.791 -0.3465,0 z"
         style="font-style:normal;font-variant:normal;font-weight:normal;font-stretch:normal;font-size:3.5px;line-height:1.25;font-family:'PT Sans';-inkscape-font-specification:'PT Sans';fill:#a40000;fill-opacity:1;stroke:none;stroke-width:0.26458299"
         id="path26" />
    </g>
    <circle
       style="display:inline;opacity:1;fill:#0000ff;fill-opacity:1;fill-rule:evenodd;stroke:none;stroke-width:1;stroke-linecap:butt;stroke-linejoin:miter;stroke-miterlimit:4;stroke-dasharray:none;stroke-dashoffset:0;stroke-opacity:1;paint-order:normal"
       id="circle7496"
       cx="7.619885"
       cy="280.75293"
       r="2" />
    <circle
       style="display:inline;opacity:1;fill:#00ff00;fill-opacity:1;fill-rule:evenodd;stroke:none;stroke-width:1;stroke-linecap:butt;stroke-linejoin:miter;stroke-miterlimit:4;stroke-dasharray:none;stroke-dashoffset:0;stroke-opacity:1;paint-order:normal"
       id="circle61507"
       cx="7.619885"
       cy="265.75299"
       r="2" />
    <g
       aria-label="lick"
       id="text207"
       style="font-size:3px;line-height:1.25;font-family:'PT Sans';-inkscape-font-specification:'PT Sans';letter-spacing:0px;fill:#204a87;stroke-width:0.264583">
      <path
         d="m 5.0565624,289.76001 q 0,0.14 0.048,0.2 0.048,0.06 0.136,0.06 0.052,0 0.112,-0.008 0.06,-0.008 0.136,-0.036 l 0.036,0.252 q -0.064,0.032 -0.18,0.052 -0.112,0.02 -0.196,0.02 -0.18,0 -0.296,-0.1 -0.116,-0.104 -0.116,-0.348 v -2.4 h 0.32 z"
         style="font-size:4px;fill:#204a87;stroke-width:0.264583"
         id="path219" />
      <path
         d="m 5.9404374,288.25201 h 0.32 v 2 h -0.32 z m -0.068,-0.608 q 0,-0.092 0.06,-0.156 0.064,-0.068 0.16,-0.068 0.096,0 0.164,0.068 0.068,0.064 0.068,0.156 0,0.092 -0.068,0.152 -0.068,0.06 -0.164,0.06 -0.096,0 -0.16,-0.06 -0.06,-0.06 -0.06,-0.152 z"
         style="font-size:4px;fill:#204a87;stroke-width:0.264583"
         id="path221" />
      <path
         d="m 8.3067499,290.12001 q -0.12,0.088 -0.284,0.132 -0.164,0.048 -0.344,0.048 -0.232,0 -0.392,-0.072 -0.16,-0.076 -0.264,-0.212 -0.1,-0.14 -0.148,-0.332 -0.044,-0.196 -0.044,-0.432 0,-0.508 0.224,-0.776 0.224,-0.272 0.644,-0.272 0.192,0 0.324,0.032 0.136,0.028 0.244,0.084 l -0.092,0.276 q -0.092,-0.052 -0.204,-0.08 -0.112,-0.032 -0.24,-0.032 -0.568,0 -0.568,0.768 0,0.152 0.028,0.292 0.032,0.136 0.1,0.244 0.072,0.104 0.184,0.168 0.116,0.064 0.284,0.064 0.144,0 0.256,-0.044 0.116,-0.044 0.188,-0.1 z"
         style="font-size:4px;fill:#204a87;stroke-width:0.264583"
         id="path223" />
      <path
         d="m 9.2514374,289.35201 h -0.184 v 0.9 h -0.32 v -2.8 h 0.32 v 1.704 l 0.164,-0.056 0.62,-0.848 h 0.3719996 l -0.6119996,0.804 -0.164,0.132 0.2,0.16 0.6679996,0.904 H 9.9194374 Z"
         style="font-size:4px;fill:#204a87;stroke-width:0.264583"
         id="path225" />
    </g>
  </g>
</svg>
