<?xml version="1.0" encoding="UTF-8" standalone="no"?>
<!--

    Lick Audio.
    Copyright (c) 2020 held jointly by the individual authors.

    This file is part of Lick Audio.

    Lick Audio is free software: you can redistribute it and/or modify
    it under the terms of the GNU General Public License as published by
    the Free Software Foundation, either version 3 of the License, or
    (at your option) any later version.

    Lick Audio is distributed in the hope that it will be useful,
    but WITHOUT ANY WARRANTY; without even the implied warranty of
    MERCHANTABILITY or FITNESS FOR A PARTICULAR PURPOSE.  See the
    GNU General Public License for more details.

    You should have received a copy of the GNU General Public License
    along with Lick Audio.  If not, see <http://www.gnu.org/licenses/>.

-->
<svg
   width="15.052mm"
   height="128.5mm"
   viewBox="0 0 15.052 128.5"
   id="svg5363"
   version="1.1"
   inkscape:version="1.1-dev (b8b2f67, 2020-09-09)"
   sodipodi:docname="Fabs.svg"
   xmlns:inkscape="http://www.inkscape.org/namespaces/inkscape"
   xmlns:sodipodi="http://sodipodi.sourceforge.net/DTD/sodipodi-0.dtd"
   xmlns="http://www.w3.org/2000/svg"
   xmlns:svg="http://www.w3.org/2000/svg"
   xmlns:rdf="http://www.w3.org/1999/02/22-rdf-syntax-ns#"
   xmlns:cc="http://creativecommons.org/ns#"
   xmlns:dc="http://purl.org/dc/elements/1.1/">
  <defs
     id="defs5365" />
  <sodipodi:namedview
     id="base"
     pagecolor="#ffffff"
     bordercolor="#666666"
     borderopacity="1.0"
     inkscape:pageopacity="0.0"
     inkscape:pageshadow="2"
     inkscape:zoom="0.96979571"
     inkscape:cx="-98.98992"
     inkscape:cy="280.47144"
     inkscape:document-units="mm"
     inkscape:current-layer="layer2"
     showgrid="false"
     inkscape:window-width="1298"
     inkscape:window-height="736"
     inkscape:window-x="32"
     inkscape:window-y="23"
     inkscape:window-maximized="0"
     inkscape:document-rotation="0" />
  <metadata
     id="metadata5368">
    <rdf:RDF>
      <cc:Work
         rdf:about="">
        <dc:format>image/svg+xml</dc:format>
        <dc:type
           rdf:resource="http://purl.org/dc/dcmitype/StillImage" />
        <dc:title />
      </cc:Work>
    </rdf:RDF>
  </metadata>
  <g
     inkscape:label="Layer 1"
     inkscape:groupmode="layer"
     id="layer1"
     transform="translate(0,-168.5)">
    <rect
       style="fill:#eeeeec;fill-opacity:1;stroke:#ff0000;stroke-width:0.01;stroke-miterlimit:4;stroke-dasharray:none;stroke-opacity:1"
       id="rect5914"
       width="15.042"
       height="128.48999"
       x="0.0049999999"
       y="168.50499" />
    <path
       inkscape:connector-curvature="0"
       style="fill:#2e3436;fill-opacity:1;fill-rule:nonzero;stroke:none;stroke-width:0.35277778"
       d="m 12.46164,273.41832 c 0,-0.54984 0.07987,-1.05034 -0.469952,-1.04731 l -8.7435858,0.0482 c -0.5498416,0.003 -0.4685421,0.44924 -0.4685421,0.99908 l 0,11.67336 c 0,0.54984 -0.033079,1.00046 0.5167709,1.00046 l 8.647128,0 c 0.54983,0 0.518181,-0.45062 0.518181,-1.00046 z"
       id="path38477"
       sodipodi:nodetypes="sssssssss" />
    <g
       aria-label="lick"
       id="text207"
       style="font-size:3px;line-height:1.25;font-family:'PT Sans';-inkscape-font-specification:'PT Sans';letter-spacing:0px;fill:#204a87;stroke-width:0.264583">
      <path
         d="m 5.0565624,289.76001 q 0,0.14 0.048,0.2 0.048,0.06 0.136,0.06 0.052,0 0.112,-0.008 0.06,-0.008 0.136,-0.036 l 0.036,0.252 q -0.064,0.032 -0.18,0.052 -0.112,0.02 -0.196,0.02 -0.18,0 -0.296,-0.1 -0.116,-0.104 -0.116,-0.348 v -2.4 h 0.32 z"
         style="font-size:4px;fill:#204a87;stroke-width:0.264583"
         id="path219" />
      <path
         d="m 5.9404374,288.25201 h 0.32 v 2 h -0.32 z m -0.068,-0.608 q 0,-0.092 0.06,-0.156 0.064,-0.068 0.16,-0.068 0.096,0 0.164,0.068 0.068,0.064 0.068,0.156 0,0.092 -0.068,0.152 -0.068,0.06 -0.164,0.06 -0.096,0 -0.16,-0.06 -0.06,-0.06 -0.06,-0.152 z"
         style="font-size:4px;fill:#204a87;stroke-width:0.264583"
         id="path221" />
      <path
         d="m 8.3067499,290.12001 q -0.12,0.088 -0.284,0.132 -0.164,0.048 -0.344,0.048 -0.232,0 -0.392,-0.072 -0.16,-0.076 -0.264,-0.212 -0.1,-0.14 -0.148,-0.332 -0.044,-0.196 -0.044,-0.432 0,-0.508 0.224,-0.776 0.224,-0.272 0.644,-0.272 0.192,0 0.324,0.032 0.136,0.028 0.244,0.084 l -0.092,0.276 q -0.092,-0.052 -0.204,-0.08 -0.112,-0.032 -0.24,-0.032 -0.568,0 -0.568,0.768 0,0.152 0.028,0.292 0.032,0.136 0.1,0.244 0.072,0.104 0.184,0.168 0.116,0.064 0.284,0.064 0.144,0 0.256,-0.044 0.116,-0.044 0.188,-0.1 z"
         style="font-size:4px;fill:#204a87;stroke-width:0.264583"
         id="path223" />
      <path
         d="m 9.2514374,289.35201 h -0.184 v 0.9 h -0.32 v -2.8 h 0.32 v 1.704 l 0.164,-0.056 0.62,-0.848 h 0.3719996 l -0.6119996,0.804 -0.164,0.132 0.2,0.16 0.6679996,0.904 H 9.9194374 Z"
         style="font-size:4px;fill:#204a87;stroke-width:0.264583"
         id="path225" />
    </g>
    <g
       aria-label="fabs"
       id="text128"
       style="font-size:4.5px;line-height:1.25;font-family:'PT Sans';-inkscape-font-specification:'PT Sans';letter-spacing:0px;stroke-width:0.264583">
      <path
         d="m 3.6818397,175.82343 h 0.351 v -0.126 q 0,-0.207 0.0315,-0.36 0.036,-0.153 0.1125,-0.2475 0.0765,-0.099 0.198,-0.144 0.1215,-0.0495 0.3015,-0.0495 0.144,0 0.252,0.018 0.1125,0.018 0.234,0.0675 l -0.081,0.3015 q -0.1035,-0.045 -0.198,-0.0585 -0.09,-0.0135 -0.171,-0.0135 -0.117,0 -0.1845,0.036 -0.063,0.036 -0.0945,0.108 -0.027,0.0675 -0.036,0.171 -0.0045,0.099 -0.0045,0.234 v 0.063 h 0.5985 v 0.315 h -0.5985 v 1.935 h -0.36 v -1.935 h -0.351 z"
         style="font-size:4.5px;fill:#a40000;stroke-width:0.264583"
         id="path226" />
      <path
         d="m 5.3259569,175.98993 q 0.171,-0.1035 0.396,-0.153 0.2295,-0.0495 0.477,-0.0495 0.234,0 0.3735,0.063 0.144,0.063 0.216,0.1665 0.0765,0.099 0.099,0.2205 0.027,0.1215 0.027,0.243 0,0.27 -0.0135,0.5265 -0.0135,0.2565 -0.0135,0.486 0,0.1665 0.0135,0.315 0.0135,0.1485 0.0495,0.2745 h -0.2655 l -0.0945,-0.315 h -0.0225 q -0.0405,0.063 -0.1035,0.126 -0.0585,0.0585 -0.144,0.108 -0.0855,0.045 -0.198,0.0765 -0.1125,0.0315 -0.2565,0.0315 -0.144,0 -0.27,-0.045 -0.1215,-0.045 -0.2115,-0.126 -0.09,-0.0855 -0.144,-0.2025 -0.0495,-0.117 -0.0495,-0.2655 0,-0.198 0.081,-0.3285 0.081,-0.135 0.225,-0.2115 0.1485,-0.081 0.351,-0.1125 0.207,-0.036 0.4545,-0.036 0.063,0 0.1215,0 0.063,0 0.126,0.009 0.0135,-0.135 0.0135,-0.243 0,-0.2475 -0.099,-0.3465 -0.099,-0.099 -0.36,-0.099 -0.0765,0 -0.1665,0.0135 -0.0855,0.009 -0.18,0.0315 -0.09,0.018 -0.1755,0.0495 -0.081,0.027 -0.144,0.063 z m 0.639,1.8045 q 0.126,0 0.225,-0.0315 0.099,-0.036 0.171,-0.0855 0.072,-0.054 0.117,-0.117 0.0495,-0.063 0.072,-0.1215 v -0.3735 q -0.063,-0.004 -0.1305,-0.004 -0.063,-0.005 -0.126,-0.005 -0.1395,0 -0.2745,0.018 -0.1305,0.0135 -0.234,0.0585 -0.099,0.0405 -0.162,0.117 -0.0585,0.072 -0.0585,0.1845 0,0.1575 0.1125,0.261 0.1125,0.099 0.288,0.099 z"
         style="font-size:4.5px;fill:#a40000;stroke-width:0.264583"
         id="path228" />
      <path
         d="m 7.5943788,174.92343 h 0.36 v 1.1205 h 0.018 q 0.1035,-0.1305 0.261,-0.2025 0.162,-0.072 0.351,-0.072 0.4365,0 0.6525,0.279 0.2205,0.279 0.2205,0.864 0,0.5895 -0.288,0.8955 -0.288,0.306 -0.81,0.306 -0.252,0 -0.459,-0.054 -0.2025,-0.054 -0.306,-0.117 z m 0.927,1.161 q -0.225,0 -0.3645,0.126 -0.1395,0.126 -0.2025,0.3555 v 1.134 q 0.0855,0.0495 0.207,0.0765 0.1215,0.0225 0.252,0.0225 0.306,0 0.486,-0.216 0.1845,-0.216 0.1845,-0.675 0,-0.1755 -0.0315,-0.3285 -0.0315,-0.153 -0.099,-0.261 -0.0675,-0.108 -0.1755,-0.171 -0.1035,-0.063 -0.2565,-0.063 z"
         style="font-size:4.5px;fill:#a40000;stroke-width:0.264583"
         id="path230" />
      <path
         d="m 11.01016,177.46143 q 0,-0.135 -0.081,-0.2115 -0.081,-0.0765 -0.2025,-0.126 -0.117,-0.054 -0.261,-0.099 -0.1395,-0.0495 -0.261,-0.1215 -0.117,-0.0765 -0.198,-0.1935 -0.081,-0.117 -0.081,-0.315 0,-0.324 0.1845,-0.4725 0.1845,-0.153 0.513,-0.153 0.243,0 0.405,0.045 0.1665,0.0405 0.288,0.099 l -0.0855,0.297 q -0.1035,-0.0495 -0.252,-0.0855 -0.144,-0.0405 -0.3105,-0.0405 -0.198,0 -0.2925,0.0675 -0.09,0.0675 -0.09,0.234 0,0.117 0.081,0.1845 0.081,0.063 0.198,0.117 0.1215,0.0495 0.261,0.099 0.144,0.0495 0.261,0.1305 0.1215,0.081 0.2025,0.207 0.081,0.1215 0.081,0.324 0,0.144 -0.0495,0.27 -0.045,0.126 -0.144,0.216 -0.099,0.09 -0.2475,0.1395 -0.144,0.054 -0.342,0.054 -0.2565,0 -0.4365,-0.0495 -0.18,-0.0495 -0.3015,-0.117 l 0.108,-0.306 q 0.1035,0.0585 0.27,0.108 0.1665,0.0495 0.3375,0.0495 0.1935,0 0.3195,-0.0765 0.126,-0.0765 0.126,-0.2745 z"
         style="font-size:4.5px;fill:#a40000;stroke-width:0.264583"
         id="path232" />
    </g>
  </g>
  <g
     inkscape:groupmode="layer"
     id="layer2"
     inkscape:label="components"
     style="display:inline">
    <circle
       style="display:inline;opacity:1;fill:#00ff00;fill-opacity:1;fill-rule:evenodd;stroke:none;stroke-width:1;stroke-linecap:butt;stroke-linejoin:miter;stroke-miterlimit:4;stroke-dasharray:none;stroke-dashoffset:0;stroke-opacity:1;paint-order:normal"
       id="in"
       cx="7.619885"
       cy="97.252991"
       r="2" />
    <circle
       style="display:inline;opacity:1;fill:#0000ff;fill-opacity:1;fill-rule:evenodd;stroke:none;stroke-width:1;stroke-linecap:butt;stroke-linejoin:miter;stroke-miterlimit:4;stroke-dasharray:none;stroke-dashoffset:0;stroke-opacity:1;paint-order:normal"
       id="out"
       cx="7.619885"
       cy="112.25293"
       r="2" />
    <circle
       style="display:inline;opacity:1;fill:#00ff00;fill-opacity:1;fill-rule:evenodd;stroke:none;stroke-width:1;stroke-linecap:butt;stroke-linejoin:miter;stroke-miterlimit:4;stroke-dasharray:none;stroke-dashoffset:0;stroke-opacity:1;paint-order:normal"
       id="amount"
       cx="7.619885"
       cy="42"
       r="2"
       inkscape:label="#amount" />
  </g>
</svg>
